<?xml version="1.0" encoding="UTF-8" standalone="no" ?>
<!DOCTYPE svg PUBLIC "-//W3C//DTD SVG 1.1//EN" "http://www.w3.org/Graphics/SVG/1.1/DTD/svg11.dtd">
<svg xmlns="http://www.w3.org/2000/svg" xmlns:xlink="http://www.w3.org/1999/xlink" version="1.1" width="1080" height="1080" viewBox="0 0 1080 1080" xml:space="preserve">
<desc>Created with Fabric.js 5.2.4</desc>
<defs>
</defs>
<g transform="matrix(1 0 0 1 540 540)" id="5f2e1397-fec3-40c8-8e26-f754c3efb955"  >
</g>
<g transform="matrix(1 0 0 1 540 540)" id="f786c95e-bf05-4b69-8f50-a1ebe67435d1"  >
<rect style="stroke: none; stroke-width: 1; stroke-dasharray: none; stroke-linecap: butt; stroke-dashoffset: 0; stroke-linejoin: miter; stroke-miterlimit: 4; fill: rgb(255,255,255); fill-rule: nonzero; opacity: 1; visibility: hidden;" vector-effect="non-scaling-stroke"  x="-540" y="-540" rx="0" ry="0" width="1080" height="1080" />
</g>
<g transform="matrix(1.33 0 0 1.33 547.92 436.15)"  >
<path style="stroke: none; stroke-width: 1; stroke-dasharray: none; stroke-linecap: butt; stroke-dashoffset: 0; stroke-linejoin: miter; stroke-miterlimit: 4; fill: rgb(0,0,0); fill-rule: nonzero; opacity: 1;" vector-effect="non-scaling-stroke"  transform=" translate(-349.81, -280.08)" d="M 612.47 350.79 C 609.0872 348.2627 604.3841 348.497 601.2710000000001 351.34859 C 556.7120000000001 391.72759 499.5710000000001 415.47759 439.5210000000001 418.58659 C 379.4700000000001 421.69599 320.1910000000001 403.96959 271.7010000000001 368.41059 C 223.21300000000008 332.84859 188.49000000000007 281.63359 173.4120000000001 223.42059 C 158.3300000000001 165.20959 163.8143000000001 103.58059 188.93900000000008 48.950590000000005 C 190.59920000000008 45.19279 189.42338000000007 40.78649000000001 186.10700000000008 38.36459000000001 C 182.79450000000008 35.938790000000004 178.2398000000001 36.14979000000001 175.1620000000001 38.868500000000004 C 134.2480000000001 75.9625 105.2910000000001 124.3845 91.97400000000009 177.97850000000003 C 78.65400000000008 231.5765 81.5790000000001 287.9185 100.37240000000008 339.84850000000006 C 119.16940000000008 391.77450000000005 152.9814000000001 436.94250000000005 197.51740000000007 469.59850000000006 C 242.05240000000006 502.25450000000006 295.29440000000005 520.9265 350.46740000000005 523.2395 C 405.64340000000004 525.5559000000001 460.2574000000001 511.4035 507.3774000000001 482.5915 C 554.4904000000001 453.7795 591.9674000000001 411.6035 615.0374 361.4315 C 616.7835 357.7167 615.7131800000001 353.2909 612.4632 350.7905 z M 362.37 506.02 C 296.573 506.02 233.20000000000002 481.168 184.95000000000002 436.43399999999997 C 136.69600000000003 391.7 107.12200000000001 330.38399999999996 102.15300000000002 264.774 C 97.18030000000002 199.161 117.18000000000002 134.094 158.14100000000002 82.60400000000001 C 142.79700000000003 137.17000000000002 144.47700000000003 195.12400000000002 162.95350000000002 248.71400000000003 C 181.43050000000002 302.30400000000003 215.82450000000003 348.98400000000004 261.53950000000003 382.504 C 307.25050000000005 416.024 362.1095 434.789 418.7695 436.297 C 475.4375 437.8048 531.2094999999999 421.985 578.6495 390.94500000000005 C 554.7155 426.30400000000003 522.4975 455.27700000000004 484.8015 475.33600000000007 C 447.1065 495.3950000000001 405.07449999999994 505.93000000000006 362.37149999999997 506.02400000000006 z" stroke-linecap="round" />
</g>
</svg>