<?xml version="1.0" encoding="UTF-8"?>
<svg width="700pt" height="700pt" version="1.1" viewBox="0 0 700 700" xmlns="http://www.w3.org/2000/svg">
 <g fill-rule="evenodd">
  <path d="m350 140c6.4414 0 11.668 5.2227 11.668 11.668v135.33c0 3.7266-1.7812 7.2305-4.793 9.4258l-86.332 63c-5.2031 3.7969-12.504 2.6562-16.301-2.5508-3.7969-5.2031-2.6562-12.5 2.5469-16.301l81.543-59.504v-129.4c0-6.4453 5.2266-11.668 11.668-11.668z"/>
  <path d="m172.12 337.96c-6.2383 1.6055-12.598-2.1484-14.207-8.3906-0.99219-3.8594-1.8594-7.7344-2.6055-11.613-1.2148-6.3281 2.9297-12.441 9.2578-13.656 6.3281-1.2148 12.441 2.9297 13.656 9.2578 0.65625 3.4062 1.418 6.8047 2.2891 10.195 1.6055 6.2422-2.1484 12.602-8.3906 14.207zm-7.7734-77.375c-6.3438-1.1211-10.578-7.1758-9.457-13.52 1.3789-7.7969 3.2188-15.496 5.4961-23.055 1.8555-6.1719 8.3633-9.6641 14.535-7.8086 6.168 1.8594 9.6641 8.3672 7.8047 14.535-2.0156 6.6914-3.6406 13.5-4.8594 20.391-1.1211 6.3477-7.1758 10.582-13.52 9.457zm30.238-83.426c-5.1641-3.8516-6.2266-11.164-2.375-16.328 4.7188-6.3242 9.8125-12.387 15.266-18.137 4.4297-4.6758 11.816-4.8711 16.492-0.4375 4.6758 4.4297 4.8711 11.816 0.44141 16.492-4.8164 5.0781-9.3203 10.438-13.496 16.035-3.8516 5.1641-11.164 6.2266-16.328 2.375zm64.668-60.711c-2.7852-5.8086-0.32812-12.777 5.4805-15.559 3.5625-1.707 7.1914-3.3125 10.887-4.8086 5.9727-2.4141 12.777 0.46484 15.191 6.4375 2.418 5.9727-0.46094 12.777-6.4336 15.191-3.2461 1.3164-6.4375 2.7227-9.5664 4.2227-5.8086 2.7812-12.777 0.32812-15.559-5.4844z"/>
  <path d="m338.33 93.332c0-6.4414 5.2266-11.664 11.668-11.664 109.54 0 198.33 88.797 198.33 198.33s-88.797 198.33-198.33 198.33c-66.391 0-125.16-32.629-161.14-82.68-3.7617-5.2305-2.5664-12.52 2.6641-16.281 5.2305-3.7617 12.52-2.5703 16.281 2.6641 31.785 44.211 83.633 72.965 142.2 72.965 96.648 0 175-78.352 175-175s-78.352-175-175-175c-6.4414 0-11.668-5.2227-11.668-11.668z"/>
 </g>
</svg>
