<?xml version="1.0" encoding="UTF-8" standalone="no" ?>
<!DOCTYPE svg PUBLIC "-//W3C//DTD SVG 1.1//EN" "http://www.w3.org/Graphics/SVG/1.1/DTD/svg11.dtd">
<svg xmlns="http://www.w3.org/2000/svg" xmlns:xlink="http://www.w3.org/1999/xlink" version="1.1" width="1080" height="1080" viewBox="0 0 1080 1080" xml:space="preserve">
<desc>Created with Fabric.js 5.2.4</desc>
<defs>
</defs>
<rect x="0" y="0" width="100%" height="100%" fill="transparent"></rect>
<g transform="matrix(1 0 0 1 540 540)" id="f786c95e-bf05-4b69-8f50-a1ebe67435d1"  >
<rect style="stroke: none; stroke-width: 1; stroke-dasharray: none; stroke-linecap: butt; stroke-dashoffset: 0; stroke-linejoin: miter; stroke-miterlimit: 4; fill: rgb(255,255,255); fill-rule: nonzero; opacity: 1; visibility: hidden;" vector-effect="non-scaling-stroke"  x="-540" y="-540" rx="0" ry="0" width="1080" height="1080" />
</g>
<g transform="matrix(1 0 0 1 540 540)" id="5f2e1397-fec3-40c8-8e26-f754c3efb955"  >
</g>
<g transform="matrix(1.33 0 0 1.33 558.22 438.96)"  >
<path style="stroke: none; stroke-width: 1; stroke-dasharray: none; stroke-linecap: butt; stroke-dashoffset: 0; stroke-linejoin: miter; stroke-miterlimit: 4; fill: rgb(0,0,0); fill-rule: nonzero; opacity: 1;" vector-effect="non-scaling-stroke"  transform=" translate(-350.56, -280.09)" d="M 561.46 283.54 C 561.46 279.28220000000005 561.0732800000001 275.12980000000005 560.8232800000001 270.93800000000005 L 602.00328 263.68020000000007 L 593.64778 216.20320000000007 L 552.6167800000001 223.43370000000007 C 543.0464800000001 191.32470000000006 525.9757800000001 162.48870000000008 503.51178000000004 138.76170000000008 L 530.4137800000001 106.69570000000007 L 493.4797800000001 75.70370000000007 L 466.6707800000001 107.65670000000007 C 439.6787800000001 89.77770000000007 408.3697800000001 77.97670000000008 374.6587800000001 74.11770000000007 L 374.6587800000001 32.46970000000007 L 326.4557800000001 32.46970000000007 L 326.4557800000001 74.12970000000007 C 292.7447800000001 77.98910000000006 261.4397800000001 89.78570000000008 234.4517800000001 107.66070000000008 L 207.6507800000001 75.71170000000008 L 170.7167800000001 106.70370000000008 L 197.6147800000001 138.76270000000008 C 175.1417800000001 162.48970000000008 158.0717800000001 191.32470000000006 148.5017800000001 223.4387000000001 L 107.4937800000001 216.2082000000001 L 99.1148800000001 263.68520000000007 L 140.2988800000001 270.94300000000004 C 140.04497000000012 275.1383 139.6621600000001 279.2907 139.6621600000001 283.545 C 139.6621600000001 313.338 145.9512600000001 341.666 157.14616000000012 367.389 L 121.08416000000013 388.209 L 145.18616000000011 429.951 L 181.4521600000001 409.017 C 201.1041600000001 435.431 226.69816000000012 457.06399999999996 256.3501600000001 471.955 L 242.05716000000007 511.228 L 287.34616000000005 527.716 L 301.62716000000006 488.478 C 317.36116000000004 492.2358 333.69716000000005 494.44280000000003 350.57216000000005 494.44280000000003 C 367.4511600000001 494.44280000000003 383.7871600000001 492.23580000000004 399.52916000000005 488.47400000000005 L 413.81016000000005 527.712 L 459.09916000000004 511.224 L 444.80216 471.95099999999996 C 474.44716 457.05999999999995 500.04416000000003 435.42799999999994 519.69716 409.013 L 555.96716 429.95099999999996 L 580.06916 388.20899999999995 L 543.99516 367.381 C 555.1711600000001 341.65799999999996 561.4601600000001 313.33 561.4601600000001 283.54099999999994 z M 350.56000000000006 446.24 C 260.84100000000007 446.24 187.86000000000007 373.25600000000003 187.86000000000007 283.54 C 187.86000000000007 193.829 260.8400000000001 120.84000000000003 350.56000000000006 120.84000000000003 C 440.27900000000005 120.84000000000003 513.26 193.824 513.26 283.54 C 513.26 373.25100000000003 440.283 446.24 350.56 446.24 z" stroke-linecap="round" />
</g>
</svg>