<?xml version="1.0" encoding="UTF-8" standalone="no" ?>
<!DOCTYPE svg PUBLIC "-//W3C//DTD SVG 1.1//EN" "http://www.w3.org/Graphics/SVG/1.1/DTD/svg11.dtd">
<svg xmlns="http://www.w3.org/2000/svg" xmlns:xlink="http://www.w3.org/1999/xlink" version="1.1" width="1080" height="1080" viewBox="0 0 1080 1080" xml:space="preserve">
<desc>Created with Fabric.js 5.2.4</desc>
<defs>
</defs>
<g transform="matrix(1 0 0 1 540 540)" id="1bab25aa-43ca-4d41-aaa3-6afe4317bc53"  >
</g>
<g transform="matrix(1 0 0 1 540 540)" id="a288e083-30c9-4bfe-9ecc-28a1d3e8f0b1"  >
<rect style="stroke: none; stroke-width: 1; stroke-dasharray: none; stroke-linecap: butt; stroke-dashoffset: 0; stroke-linejoin: miter; stroke-miterlimit: 4; fill: rgb(255,255,255); fill-rule: nonzero; opacity: 1; visibility: hidden;" vector-effect="non-scaling-stroke"  x="-540" y="-540" rx="0" ry="0" width="1080" height="1080" />
</g>
<g transform="matrix(1.33 0 0 1.33 585.61 434.78)"  >
<path style="stroke: none; stroke-width: 1; stroke-dasharray: none; stroke-linecap: butt; stroke-dashoffset: 0; stroke-linejoin: miter; stroke-miterlimit: 4; fill: rgb(0,0,0); fill-rule: evenodd; opacity: 1;" vector-effect="non-scaling-stroke"  transform=" translate(-349.99, -281.35)" d="M 321.62 49.117 C 284.682 71.91 200.68 123.75 164.92000000000002 145.816 C 149.43200000000002 155.3824 139.99400000000003 172.289 139.99400000000003 190.49200000000002 L 139.99400000000003 378.992 C 139.99400000000003 397.762 150.01700000000002 415.113 166.28700000000003 424.48 L 322.3670000000001 514.4060000000001 C 338.7460000000001 523.8474000000001 358.9330000000001 523.7458 375.22600000000006 514.15209 C 412.16700000000003 492.39009000000004 497.49600000000004 442.12109000000004 534.1460000000001 420.53109000000006 C 550.162 411.0896900000001 559.994 393.8860900000001 559.994 375.29309000000006 L 559.994 187.05309000000005 C 559.994 168.45909000000006 550.162 151.25609000000006 534.1460000000001 141.81509000000005 C 497.69700000000006 120.34609000000006 413.10600000000005 70.51009000000005 375.84600000000006 48.55709000000006 C 359.0690000000001 38.674290000000056 338.19800000000004 38.88519000000006 321.62700000000007 49.11568000000006 z M 183.31 175.607 L 340.01 78.9 C 345.5373 75.4898 352.49 75.4234 358.08799999999997 78.71641000000001 C 358.08799999999997 78.71641000000001 516.3879999999999 171.97441 516.3879999999999 171.97441 C 521.7317999999999 175.12281000000002 525.0052 180.85721 525.0052 187.05641 L 525.0052 375.29641000000004 C 525.0052 381.49561000000006 521.7279 387.23041000000006 516.3879999999999 390.37841000000003 L 357.46799999999996 483.99941 C 352.03439999999995 487.19861000000003 345.304 487.22991 339.84299999999996 484.085348 L 183.76299999999995 394.159348 C 178.34109999999995 391.034348 174.99739999999994 385.24914800000005 174.99739999999994 378.99534800000004 L 174.99739999999994 190.49534800000004 C 174.99739999999994 184.42504800000003 178.14579999999995 178.79234800000003 183.30599999999995 175.60434800000004 z M 350 394.517 C 359.6602 394.517 367.5 402.3608 367.5 412.017 C 367.5 421.67719999999997 359.6602 429.517 350 429.517 C 340.3398 429.517 332.5 421.67719999999997 332.5 412.017 C 332.5 402.3608 340.3398 394.517 350 394.517 z M 367.5 342.017 L 367.5 150.46699999999998 C 367.5 140.80679999999998 359.6602 132.96699999999998 350 132.96699999999998 C 340.3398 132.96699999999998 332.5 140.80679999999998 332.5 150.46699999999998 L 332.5 342.017 C 332.5 351.67719999999997 340.3398 359.517 350 359.517 C 359.6602 359.517 367.5 351.67719999999997 367.5 342.017 z" stroke-linecap="round" />
</g>
</svg>